<?xml version="1.0" encoding="iso-8859-1"?>
<!-- Generator: Adobe Illustrator 17.1.0, SVG Export Plug-In . SVG Version: 6.00 Build 0)  -->
<!DOCTYPE svg PUBLIC "-//W3C//DTD SVG 1.1//EN" "http://www.w3.org/Graphics/SVG/1.1/DTD/svg11.dtd">
<svg version="1.1" id="Capa_1" xmlns="http://www.w3.org/2000/svg" xmlns:xlink="http://www.w3.org/1999/xlink" x="0px" y="0px"
	 viewBox="0 0 281.739 281.739" style="enable-background:new 0 0 281.739 281.739;" xml:space="preserve">
<g>
	<path style="fill:#000002;" d="M246.577,169.568h-13.234v-13.232c0-4.143-3.358-7.5-7.5-7.5c-4.142,0-7.5,3.357-7.5,7.5v13.232
		h-13.231c-4.142,0-7.5,3.357-7.5,7.5c0,4.143,3.358,7.5,7.5,7.5h13.231v13.234c0,4.143,3.358,7.5,7.5,7.5
		c4.142,0,7.5-3.357,7.5-7.5v-13.234h13.234c4.142,0,7.5-3.357,7.5-7.5C254.077,172.925,250.719,169.568,246.577,169.568z"/>
	<path style="fill:#000002;" d="M281.739,177.068c0-28.154-21.079-51.463-48.281-55.013c0.18-0.644,0.284-1.32,0.284-2.022v-12.094
		c0-1.002-0.088-1.985-0.255-2.947V78.885c0-10.201-8.299-18.5-18.5-18.5h-85.322c-3.63,0-9.295-2.876-11.437-5.806l-6.384-8.734
		C106.861,39.03,96.738,33.89,88.296,33.89H58.731c-9.294,0-18.639,6.608-21.738,15.372l-2.034,5.752
		c-0.958,2.711-4.72,5.371-7.595,5.371H18.5c-10.201,0-18.5,8.299-18.5,18.5v41.456c0,0.661,0.094,1.299,0.255,1.91v103.098
		c0,12.406,10.093,22.5,22.5,22.5h188.486c13.038,0,22.5-6.368,22.5-15.143v-0.661C260.807,228.37,281.739,205.124,281.739,177.068z
		 M18.5,75.385h8.864c9.294,0,18.64-6.608,21.737-15.371l2.034-5.752c0.959-2.711,4.722-5.372,7.596-5.372h29.564
		c3.63,0,9.295,2.876,11.437,5.807l6.385,8.734c4.982,6.815,15.104,11.954,23.546,11.954h85.322c1.897,0,3.5,1.603,3.5,3.5v10.509
		c-2.275-0.677-4.71-1.049-7.245-1.049H22.755c-2.724,0-5.336,0.487-7.755,1.378V78.885C15,76.988,16.603,75.385,18.5,75.385z
		 M22.755,232.849c-4.136,0-7.5-3.364-7.5-7.5V110.845c0-4.136,3.364-7.5,7.5-7.5h188.486c3.542,0,6.409,1.736,7.245,3.55v5.96
		c0,0.661,0.094,1.299,0.255,1.91v5.268c0,0.702,0.104,1.379,0.284,2.022c-27.202,3.55-48.281,26.858-48.281,55.013
		c0,27.594,20.245,50.54,46.66,54.786c-1.391,0.513-3.469,0.995-6.163,0.995H22.755z M226.254,217.566
		c-0.004,0-0.008-0.001-0.013-0.001c-0.004,0-0.009,0.001-0.013,0.001c-22.325-0.008-40.485-18.172-40.485-40.498
		c0-22.33,18.167-40.497,40.497-40.497s40.498,18.167,40.498,40.497C266.739,199.394,248.579,217.558,226.254,217.566z"/>
</g>
<g>
</g>
<g>
</g>
<g>
</g>
<g>
</g>
<g>
</g>
<g>
</g>
<g>
</g>
<g>
</g>
<g>
</g>
<g>
</g>
<g>
</g>
<g>
</g>
<g>
</g>
<g>
</g>
<g>
</g>
</svg>
