<?xml version='1.0' encoding='iso-8859-1'?>
<svg version="1.1" xmlns="http://www.w3.org/2000/svg" viewBox="0 0 36 36" xmlns:xlink="http://www.w3.org/1999/xlink" enable-background="new 0 0 36 36">
  <g>
    <g>
      <path fill-rule="evenodd" d="m26,22h4c1.104,0 2-0.896 2-2v-4c0-1.104-0.896-2-2-2h-4c-1.104,0-2,0.896-2,2v4c0,1.104 0.896,2 2,2zm0-6h4v4h-4v-4zm0,16h4c1.104,0 2-0.896 2-2v-4c0-1.104-0.896-2-2-2h-4c-1.104,0-2,0.896-2,2v4c0,1.104 0.896,2 2,2zm0-6h4v4h-4v-4zm8-26h-32c-1.104,0-2,0.896-2,2v32c0,1.104 0.896,2 2,2h32c1.104,0 2-0.896 2-2v-32c0-1.104-0.896-2-2-2zm0,34h-32v-32h32v32zm-28-22h4c1.104,0 2-0.896 2-2v-4c0-1.104-0.896-2-2-2h-4c-1.104,0-2,0.896-2,2v4c0,1.104 0.896,2 2,2zm0-6h4v4h-4v-4zm20,6h4c1.104,0 2-0.896 2-2v-4c0-1.104-0.896-2-2-2h-4c-1.104,0-2,0.896-2,2v4c0,1.104 0.896,2 2,2zm0-6h4v4h-4v-4zm-20,16h4c1.104,0 2-0.896 2-2v-4c0-1.104-0.896-2-2-2h-4c-1.104,0-2,0.896-2,2v4c0,1.104 0.896,2 2,2zm0-6h4v4h-4v-4zm0,16h4c1.104,0 2-0.896 2-2v-4c0-1.104-0.896-2-2-2h-4c-1.104,0-2,0.896-2,2v4c0,1.104 0.896,2 2,2zm0-6h4v4h-4v-4zm10,6h4c1.104,0 2-0.896 2-2v-4c0-1.104-0.896-2-2-2h-4c-1.104,0-2,0.896-2,2v4c0,1.104 0.896,2 2,2zm0-6h4v4h-4v-4zm0-4h4c1.104,0 2-0.896 2-2v-4c0-1.104-0.896-2-2-2h-4c-1.104,0-2,0.896-2,2v4c0,1.104 0.896,2 2,2zm0-6h4v4h-4v-4zm0-4h4c1.104,0 2-0.896 2-2v-4c0-1.104-0.896-2-2-2h-4c-1.104,0-2,0.896-2,2v4c0,1.104 0.896,2 2,2zm0-6h4v4h-4v-4z"/>
    </g>
  </g>
</svg>
