<?xml version="1.0" encoding="iso-8859-1"?>
<!-- Generator: Adobe Illustrator 19.1.0, SVG Export Plug-In . SVG Version: 6.00 Build 0)  -->
<svg version="1.1" id="Capa_1" xmlns="http://www.w3.org/2000/svg" xmlns:xlink="http://www.w3.org/1999/xlink" x="0px" y="0px"
	 viewBox="0 0 29.994 29.994" style="enable-background:new 0 0 29.994 29.994;" xml:space="preserve">
<g>
	<g>
		<path style="fill:#010002;" d="M3.372,29.993C1.513,29.993,0,28.481,0,26.621c0-1.859,1.513-3.372,3.372-3.372
			s3.372,1.513,3.372,3.372C6.744,28.481,5.232,29.993,3.372,29.993z M3.372,25.024c-0.881,0-1.597,0.717-1.597,1.598
			c0,0.881,0.716,1.598,1.597,1.598c0.881,0,1.598-0.717,1.598-1.598C4.97,25.74,4.253,25.024,3.372,25.024z"/>
	</g>
	<g>
		<path style="fill:#010002;" d="M29.107,27.509c-0.49,0-0.888-0.397-0.888-0.888c0-13.701-11.146-24.847-24.847-24.847
			c-0.49,0-0.887-0.398-0.887-0.888S2.882,0,3.372,0c14.679,0,26.622,11.941,26.622,26.621
			C29.994,27.112,29.597,27.509,29.107,27.509z"/>
	</g>
	<g>
		<path style="fill:#010002;" d="M23.516,27.509c-0.49,0-0.887-0.397-0.887-0.888c0-10.617-8.639-19.256-19.256-19.256
			c-0.49,0-0.887-0.397-0.887-0.888c0-0.49,0.397-0.888,0.887-0.888c11.597,0,21.031,9.436,21.031,21.031
			C24.403,27.112,24.006,27.509,23.516,27.509z"/>
	</g>
	<g>
		<path style="fill:#010002;" d="M17.925,27.509c-0.49,0-0.887-0.397-0.887-0.888c0-7.535-6.131-13.666-13.666-13.666
			c-0.49,0-0.887-0.397-0.887-0.887c0-0.49,0.397-0.888,0.887-0.888c8.514,0,15.44,6.927,15.44,15.441
			C18.812,27.112,18.416,27.509,17.925,27.509z"/>
	</g>
	<g>
		<path style="fill:#010002;" d="M11.713,27.509c-0.49,0-0.887-0.397-0.887-0.888c0-4.11-3.344-7.454-7.454-7.454
			c-0.49,0-0.887-0.397-0.887-0.888c0-0.49,0.397-0.887,0.887-0.887c5.089,0,9.229,4.14,9.229,9.229
			C12.601,27.112,12.204,27.509,11.713,27.509z"/>
	</g>
</g>
<g>
</g>
<g>
</g>
<g>
</g>
<g>
</g>
<g>
</g>
<g>
</g>
<g>
</g>
<g>
</g>
<g>
</g>
<g>
</g>
<g>
</g>
<g>
</g>
<g>
</g>
<g>
</g>
<g>
</g>
</svg>
