<?xml version='1.0' encoding='iso-8859-1'?>
<svg version="1.1" xmlns="http://www.w3.org/2000/svg" viewBox="0 0 297.56 297.56" xmlns:xlink="http://www.w3.org/1999/xlink" enable-background="new 0 0 297.56 297.56">
  <g>
    <g>
      <path d="m294.95,102.667c-40.023-40.023-90.486-60.904-146.17-60.904s-107.887,22.621-146.17,60.904c-3.48,3.48-3.48,8.701-1.37668e-14,12.181s8.701,3.48 12.181,0c34.802-36.543 83.526-55.684 132.249-55.684s97.447,20.882 132.249,55.684c1.74,1.74 5.22,1.74 6.96,1.74 1.74,0 5.22-1.74 8.701-1.74 3.48-3.481 3.48-8.701 0-12.181z"/>
      <path d="m46.113,147.91c-3.48,3.48-3.48,8.701 0,12.181 3.48,3.48 8.701,3.48 12.181,0 48.723-46.983 127.029-46.983 174.012,0 1.74,1.74 5.22,1.74 6.96,1.74 3.48,0 5.22,0 5.22-1.74 3.48-3.48 3.48-8.701 0-12.181-55.683-53.944-144.429-53.944-198.373,0z"/>
      <path d="m94.837,194.894c-3.48,3.48-3.48,8.701 0,12.181s8.701,3.48 12.181,0c20.882-22.621 57.424-22.621 80.046,0 1.74,1.74 5.22,1.74 6.96,1.74 1.74,0 3.48-1.74 5.22-1.74 3.48-3.48 3.48-8.701 0-12.181-27.842-29.583-74.826-29.583-104.407,0z"/>
      <path d="m140.079,240.137c-1.74,1.74-1.74,5.22-1.74,6.96 0,1.74 0,3.48 1.74,5.22 1.74,1.74 5.22,3.48 6.96,3.48 1.74,0 5.22-1.74 6.96-3.48 0,0 1.74-1.74 1.74-5.22 0-3.48-1.74-5.22-3.48-6.96-3.479-3.481-8.699-3.481-12.18,0z"/>
    </g>
  </g>
</svg>
