<?xml version="1.0" encoding="iso-8859-1"?>
<!-- Generator: Adobe Illustrator 19.1.0, SVG Export Plug-In . SVG Version: 6.00 Build 0)  -->
<svg version="1.1" id="Capa_1" xmlns="http://www.w3.org/2000/svg" xmlns:xlink="http://www.w3.org/1999/xlink" x="0px" y="0px"
	 viewBox="0 0 31.107 31.107" style="enable-background:new 0 0 31.107 31.107;" xml:space="preserve">
<g>
	<g>
		<path style="fill:#010002;" d="M30.195,31.059c-0.49,0-0.887-0.397-0.887-0.888V0.887c0-0.49,0.397-0.887,0.887-0.887
			c0.49,0,0.887,0.396,0.887,0.887v29.284C31.082,30.661,30.685,31.059,30.195,31.059z"/>
	</g>
	<g>
		<path style="fill:#010002;" d="M0.911,31.107c-0.49,0-0.887-0.398-0.887-0.888V20.34c0-0.49,0.397-0.888,0.887-0.888
			c0.49,0,0.887,0.397,0.887,0.888v9.879C1.799,30.709,1.402,31.107,0.911,31.107z"/>
	</g>
	<g>
		<path style="fill:#010002;" d="M8.232,31.107c-0.49,0-0.887-0.398-0.887-0.888V15.577c0-0.49,0.397-0.888,0.887-0.888
			s0.888,0.397,0.888,0.888v14.642C9.12,30.709,8.722,31.107,8.232,31.107z"/>
	</g>
	<g>
		<path style="fill:#010002;" d="M15.554,31.107c-0.49,0-0.888-0.398-0.888-0.888V10.816c0-0.49,0.397-0.888,0.888-0.888
			c0.49,0,0.887,0.397,0.887,0.888v19.403C16.441,30.709,16.043,31.107,15.554,31.107z"/>
	</g>
	<g>
		<path style="fill:#010002;" d="M22.874,31.107c-0.49,0-0.888-0.398-0.888-0.888V5.75c0-0.49,0.397-0.887,0.888-0.887
			c0.49,0,0.887,0.397,0.887,0.887v24.469C23.761,30.709,23.365,31.107,22.874,31.107z"/>
	</g>
</g>
<g>
</g>
<g>
</g>
<g>
</g>
<g>
</g>
<g>
</g>
<g>
</g>
<g>
</g>
<g>
</g>
<g>
</g>
<g>
</g>
<g>
</g>
<g>
</g>
<g>
</g>
<g>
</g>
<g>
</g>
</svg>
